<svg id="visual" viewBox="0 0 900 600" width="900" height="600" xmlns="http://www.w3.org/2000/svg" xmlns:xlink="http://www.w3.org/1999/xlink" version="1.1"><path d="M0 276L129 225L257 262L386 258L514 283L643 262L771 231L900 216L900 601L771 601L643 601L514 601L386 601L257 601L129 601L0 601Z" fill="#2d4739"></path><path d="M0 280L129 363L257 348L386 339L514 312L643 292L771 286L900 300L900 601L771 601L643 601L514 601L386 601L257 601L129 601L0 601Z" fill="#244038"></path><path d="M0 314L129 387L257 302L386 362L514 348L643 362L771 315L900 402L900 601L771 601L643 601L514 601L386 601L257 601L129 601L0 601Z" fill="#1e3936"></path><path d="M0 338L129 438L257 411L386 343L514 410L643 334L771 336L900 357L900 601L771 601L643 601L514 601L386 601L257 601L129 601L0 601Z" fill="#1a3232"></path><path d="M0 446L129 406L257 457L386 463L514 449L643 426L771 403L900 399L900 601L771 601L643 601L514 601L386 601L257 601L129 601L0 601Z" fill="#182a2d"></path><path d="M0 459L129 490L257 427L386 442L514 482L643 429L771 497L900 440L900 601L771 601L643 601L514 601L386 601L257 601L129 601L0 601Z" fill="#162327"></path><path d="M0 534L129 493L257 528L386 513L514 500L643 510L771 537L900 474L900 601L771 601L643 601L514 601L386 601L257 601L129 601L0 601Z" fill="#151d20"></path><path d="M0 570L129 562L257 564L386 528L514 537L643 521L771 531L900 523L900 601L771 601L643 601L514 601L386 601L257 601L129 601L0 601Z" fill="#121619"></path></svg>