<svg id="visual" viewBox="0 0 900 600" width="900" height="600" xmlns="http://www.w3.org/2000/svg" xmlns:xlink="http://www.w3.org/1999/xlink" version="1.1"><rect x="0" y="0" width="900" height="600" fill="#121619"></rect><path d="M0 387L21.5 380.3C43 373.7 86 360.3 128.8 345.3C171.7 330.3 214.3 313.7 257.2 308.7C300 303.7 343 310.3 385.8 325.7C428.7 341 471.3 365 514.2 367.8C557 370.7 600 352.3 642.8 356.3C685.7 360.3 728.3 386.7 771.2 397C814 407.3 857 401.7 878.5 398.8L900 396L900 601L878.5 601C857 601 814 601 771.2 601C728.3 601 685.7 601 642.8 601C600 601 557 601 514.2 601C471.3 601 428.7 601 385.8 601C343 601 300 601 257.2 601C214.3 601 171.7 601 128.8 601C86 601 43 601 21.5 601L0 601Z" fill="#2d4739"></path>

<path d="M0 388L21.5 386.8C43 385.7 86 383.3 128.8 388.7C171.7 394 214.3 407 257.2 418.8C300 430.7 343 441.3 385.8 441.7C428.7 442 471.3 432 514.2 419.7C557 407.3 600 392.7 642.8 382.2C685.7 371.7 728.3 365.3 771.2 362.3C814 359.3 857 359.7 878.5 359.8L900 360L900 601L878.5 601C857 601 814 601 771.2 601C728.3 601 685.7 601 642.8 601C600 601 557 601 514.2 601C471.3 601 428.7 601 385.8 601C343 601 300 601 257.2 601C214.3 601 171.7 601 128.8 601C86 601 43 601 21.5 601L0 601Z" fill="#2b513d"></path>

<path d="M0 440L21.5 430.8C43 421.7 86 403.3 128.8 398.3C171.7 393.3 214.3 401.7 257.2 400.2C300 398.7 343 387.3 385.8 396.7C428.7 406 471.3 436 514.2 450.2C557 464.3 600 462.7 642.8 458.3C685.7 454 728.3 447 771.2 438.7C814 430.3 857 420.7 878.5 415.8L900 411L900 601L878.5 601C857 601 814 601 771.2 601C728.3 601 685.7 601 642.8 601C600 601 557 601 514.2 601C471.3 601 428.7 601 385.8 601C343 601 300 601 257.2 601C214.3 601 171.7 601 128.8 601C86 601 43 601 21.5 601L0 601Z" fill="#285a40"></path>

<path d="M0 422L21.5 424.2C43 426.3 86 430.7 128.8 440.8C171.7 451 214.3 467 257.2 469.3C300 471.7 343 460.3 385.8 451.2C428.7 442 471.3 435 514.2 432.3C557 429.7 600 431.3 642.8 433C685.7 434.7 728.3 436.3 771.2 439.3C814 442.3 857 446.7 878.5 448.8L900 451L900 601L878.5 601C857 601 814 601 771.2 601C728.3 601 685.7 601 642.8 601C600 601 557 601 514.2 601C471.3 601 428.7 601 385.8 601C343 601 300 601 257.2 601C214.3 601 171.7 601 128.8 601C86 601 43 601 21.5 601L0 601Z" fill="#246443"></path>

<path d="M0 508L21.5 509C43 510 86 512 128.8 508.2C171.7 504.3 214.3 494.7 257.2 484.5C300 474.3 343 463.7 385.8 468.2C428.7 472.7 471.3 492.3 514.2 504.2C557 516 600 520 642.8 512.8C685.7 505.7 728.3 487.3 771.2 482.8C814 478.3 857 487.7 878.5 492.3L900 497L900 601L878.5 601C857 601 814 601 771.2 601C728.3 601 685.7 601 642.8 601C600 601 557 601 514.2 601C471.3 601 428.7 601 385.8 601C343 601 300 601 257.2 601C214.3 601 171.7 601 128.8 601C86 601 43 601 21.5 601L0 601Z" fill="#1f6e46"></path>

<path d="M0 545L21.5 543.8C43 542.7 86 540.3 128.8 541.3C171.7 542.3 214.3 546.7 257.2 542.8C300 539 343 527 385.8 522.7C428.7 518.3 471.3 521.7 514.2 521.2C557 520.7 600 516.3 642.8 511C685.7 505.7 728.3 499.3 771.2 502.3C814 505.3 857 517.7 878.5 523.8L900 530L900 601L878.5 601C857 601 814 601 771.2 601C728.3 601 685.7 601 642.8 601C600 601 557 601 514.2 601C471.3 601 428.7 601 385.8 601C343 601 300 601 257.2 601C214.3 601 171.7 601 128.8 601C86 601 43 601 21.5 601L0 601Z" fill="#177748"></path>

<path d="M0 565L21.5 565.8C43 566.7 86 568.3 128.8 568.7C171.7 569 214.3 568 257.2 563.5C300 559 343 551 385.8 545.8C428.7 540.7 471.3 538.3 514.2 538C557 537.7 600 539.3 642.8 545.8C685.7 552.3 728.3 563.7 771.2 562.3C814 561 857 547 878.5 540L900 533L900 601L878.5 601C857 601 814 601 771.2 601C728.3 601 685.7 601 642.8 601C600 601 557 601 514.2 601C471.3 601 428.7 601 385.8 601C343 601 300 601 257.2 601C214.3 601 171.7 601 128.8 601C86 601 43 601 21.5 601L0 601Z" fill="#09814a"></path></svg>