<svg id="visual" viewBox="0 0 900 600" width="900" height="600" xmlns="http://www.w3.org/2000/svg" xmlns:xlink="http://www.w3.org/1999/xlink" version="1.1"><path d="M0 440L21.5 430.8C43 421.7 86 403.3 128.8 398.3C171.7 393.3 214.3 401.7 257.2 400.2C300 398.7 343 387.3 385.8 396.7C428.7 406 471.3 436 514.2 450.2C557 464.3 600 462.7 642.8 458.3C685.7 454 728.3 447 771.2 438.7C814 430.3 857 420.7 878.5 415.8L900 411L900 601L878.5 601C857 601 814 601 771.2 601C728.3 601 685.7 601 642.8 601C600 601 557 601 514.2 601C471.3 601 428.7 601 385.8 601C343 601 300 601 257.2 601C214.3 601 171.7 601 128.8 601C86 601 43 601 21.5 601L0 601Z" fill="#285a40"></path></svg>