<svg id="visual" viewBox="0 0 900 600" width="900" height="600" xmlns="http://www.w3.org/2000/svg" xmlns:xlink="http://www.w3.org/1999/xlink" version="1.1"><path d="M0 565L21.5 565.8C43 566.7 86 568.3 128.8 568.7C171.7 569 214.3 568 257.2 563.5C300 559 343 551 385.8 545.8C428.7 540.7 471.3 538.3 514.2 538C557 537.7 600 539.3 642.8 545.8C685.7 552.3 728.3 563.7 771.2 562.3C814 561 857 547 878.5 540L900 533L900 601L878.5 601C857 601 814 601 771.2 601C728.3 601 685.7 601 642.8 601C600 601 557 601 514.2 601C471.3 601 428.7 601 385.8 601C343 601 300 601 257.2 601C214.3 601 171.7 601 128.8 601C86 601 43 601 21.5 601L0 601Z" fill="#09814a"></path></svg>