<svg id="visual" viewBox="0 0 900 600" width="900" height="600" xmlns="http://www.w3.org/2000/svg" xmlns:xlink="http://www.w3.org/1999/xlink" version="1.1"><path d="M0 545L21.5 543.8C43 542.7 86 540.3 128.8 541.3C171.7 542.3 214.3 546.7 257.2 542.8C300 539 343 527 385.8 522.7C428.7 518.3 471.3 521.7 514.2 521.2C557 520.7 600 516.3 642.8 511C685.7 505.7 728.3 499.3 771.2 502.3C814 505.3 857 517.7 878.5 523.8L900 530L900 601L878.5 601C857 601 814 601 771.2 601C728.3 601 685.7 601 642.8 601C600 601 557 601 514.2 601C471.3 601 428.7 601 385.8 601C343 601 300 601 257.2 601C214.3 601 171.7 601 128.8 601C86 601 43 601 21.5 601L0 601Z" fill="#177748"></path></svg>