<svg id="visual" viewBox="0 0 900 600" width="900" height="600" xmlns="http://www.w3.org/2000/svg" xmlns:xlink="http://www.w3.org/1999/xlink" version="1.1"><path d="M0 422L21.5 424.2C43 426.3 86 430.7 128.8 440.8C171.7 451 214.3 467 257.2 469.3C300 471.7 343 460.3 385.8 451.2C428.7 442 471.3 435 514.2 432.3C557 429.7 600 431.3 642.8 433C685.7 434.7 728.3 436.3 771.2 439.3C814 442.3 857 446.7 878.5 448.8L900 451L900 601L878.5 601C857 601 814 601 771.2 601C728.3 601 685.7 601 642.8 601C600 601 557 601 514.2 601C471.3 601 428.7 601 385.8 601C343 601 300 601 257.2 601C214.3 601 171.7 601 128.8 601C86 601 43 601 21.5 601L0 601Z" fill="#246443"></path></svg>