<svg id="visual" viewBox="0 0 900 600" width="900" height="600" xmlns="http://www.w3.org/2000/svg" xmlns:xlink="http://www.w3.org/1999/xlink" version="1.1"><path d="M0 387L21.5 380.3C43 373.7 86 360.3 128.8 345.3C171.7 330.3 214.3 313.7 257.2 308.7C300 303.7 343 310.3 385.8 325.7C428.7 341 471.3 365 514.2 367.8C557 370.7 600 352.3 642.8 356.3C685.7 360.3 728.3 386.7 771.2 397C814 407.3 857 401.7 878.5 398.8L900 396L900 601L878.5 601C857 601 814 601 771.2 601C728.3 601 685.7 601 642.8 601C600 601 557 601 514.2 601C471.3 601 428.7 601 385.8 601C343 601 300 601 257.2 601C214.3 601 171.7 601 128.8 601C86 601 43 601 21.5 601L0 601Z" fill="#2d4739"></path></svg>